<?xml version="1.0" encoding="UTF-8" standalone="no"?>
<!DOCTYPE svg PUBLIC "-//W3C//DTD SVG 1.1//EN" "http://www.w3.org/Graphics/SVG/1.1/DTD/svg11.dtd">
<svg width="100%" height="100%" viewBox="0 0 591 591" version="1.1" xmlns="http://www.w3.org/2000/svg" xmlns:xlink="http://www.w3.org/1999/xlink" xml:space="preserve" xmlns:serif="http://www.serif.com/" style="fill-rule:evenodd;clip-rule:evenodd;stroke-linecap:square;stroke-linejoin:round;stroke-miterlimit:1.5;">
    <rect id="Artboard1" x="0" y="0" width="590.551" height="590.551" style="fill:none;"/>
    <g id="Artboard11" serif:id="Artboard1">
        <g transform="matrix(3.49237,0.109236,-0.109236,3.49237,-175.414,-241.72)">
            <g transform="matrix(103.055,0,0,103.055,73.8189,147.638)">
                <path d="M0.021,-0L0.137,-0.73L0.372,-0.73C0.449,-0.73 0.508,-0.71 0.548,-0.67C0.588,-0.63 0.602,-0.576 0.591,-0.508C0.584,-0.459 0.565,-0.416 0.535,-0.379C0.504,-0.341 0.467,-0.314 0.424,-0.298L0.521,-0L0.366,-0L0.284,-0.276L0.214,-0.276L0.17,-0L0.021,-0ZM0.234,-0.406L0.32,-0.406C0.353,-0.406 0.381,-0.414 0.402,-0.431C0.423,-0.448 0.435,-0.471 0.44,-0.501C0.445,-0.532 0.44,-0.557 0.425,-0.574C0.409,-0.591 0.384,-0.6 0.351,-0.6L0.265,-0.6L0.234,-0.406Z" style="fill:white;fill-rule:nonzero;"/>
            </g>
            <g transform="matrix(103.055,0,0,103.055,135.652,147.638)">
                <path d="M0.258,0.01C0.209,0.01 0.168,0.001 0.134,-0.018C0.1,-0.036 0.076,-0.062 0.061,-0.095C0.046,-0.128 0.042,-0.166 0.049,-0.21L0.098,-0.52C0.105,-0.565 0.122,-0.603 0.147,-0.636C0.172,-0.669 0.205,-0.694 0.245,-0.713C0.284,-0.731 0.328,-0.74 0.377,-0.74C0.426,-0.74 0.468,-0.731 0.501,-0.713C0.534,-0.694 0.559,-0.669 0.574,-0.636C0.589,-0.603 0.593,-0.565 0.586,-0.52L0.436,-0.52C0.441,-0.549 0.437,-0.572 0.423,-0.587C0.409,-0.602 0.387,-0.61 0.357,-0.61C0.327,-0.61 0.303,-0.602 0.284,-0.587C0.265,-0.572 0.253,-0.549 0.248,-0.52L0.199,-0.21C0.194,-0.181 0.199,-0.159 0.213,-0.143C0.227,-0.128 0.249,-0.12 0.279,-0.12C0.309,-0.12 0.333,-0.128 0.352,-0.143C0.371,-0.159 0.382,-0.181 0.387,-0.21L0.397,-0.273L0.289,-0.273L0.309,-0.4L0.567,-0.4L0.537,-0.21C0.53,-0.166 0.514,-0.128 0.489,-0.095C0.463,-0.062 0.43,-0.036 0.391,-0.018C0.352,0.001 0.307,0.01 0.258,0.01Z" style="fill:white;fill-rule:nonzero;"/>
            </g>
        </g>
        <g transform="matrix(0.99995,-0.00998977,0.00998977,0.99995,3.12628,-8.62335)">
            <path d="M60.642,335.378L500.747,360.557" style="fill:none;stroke:rgb(255,0,0);stroke-width:29.78px;"/>
        </g>
        <g transform="matrix(0.921717,-0.0136818,0.00551401,0.999739,9.37159,34.6336)">
            <path d="M60.642,335.378L500.747,360.557" style="fill:none;stroke:rgb(255,143,0);stroke-width:31.11px;"/>
        </g>
        <g transform="matrix(0.827295,-0.0181379,0.000112139,0.999484,16.9092,77.45)">
            <path d="M60.642,335.378L500.747,360.557" style="fill:none;stroke:rgb(255,196,0);stroke-width:32.81px;"/>
        </g>
        <g transform="matrix(0.72614,-0.0229117,-0.00567498,0.999211,24.9843,123.61)">
            <path d="M60.642,335.378L500.747,360.557" style="fill:none;stroke:rgb(63,255,0);stroke-width:34.71px;"/>
        </g>
        <g transform="matrix(0.608084,-0.0284831,-0.012429,0.998892,34.4086,170.838)">
            <path d="M60.642,335.378L500.747,360.557" style="fill:none;stroke:rgb(0,69,255);stroke-width:36.99px;"/>
        </g>
    </g>
</svg>
